<?xml version="1.0" standalone="no"?>
<!DOCTYPE svg PUBLIC "-//W3C//DTD SVG 20010904//EN"
 "http://www.w3.org/TR/2001/REC-SVG-20010904/DTD/svg10.dtd">
<svg version="1.0" xmlns="http://www.w3.org/2000/svg"
 width="512.000000pt" height="512.000000pt" viewBox="0 0 512.000000 512.000000"
 preserveAspectRatio="xMidYMid meet">
<metadata>
Created by potrace 1.14, written by Peter Selinger 2001-2017
</metadata>
<g transform="translate(0.000000,512.000000) scale(0.100000,-0.100000)"
fill="#000000" stroke="none">
<path d="M500 4593 c-35 -13 -52 -42 -85 -149 l-35 -113 -79 -68 c-86 -75
-103 -96 -107 -133 -4 -37 39 -88 81 -96 20 -3 38 -10 40 -15 3 -4 -16 -41
-41 -81 -108 -168 -205 -413 -244 -617 -25 -134 -33 -360 -18 -516 23 -242
139 -584 272 -804 32 -52 35 -63 29 -108 -24 -203 229 -314 364 -160 18 20 37
56 44 79 37 140 181 175 263 65 63 -84 -8 -212 -440 -790 -78 -103 -151 -209
-164 -234 -64 -128 16 -280 161 -309 58 -11 755 -6 800 6 77 21 149 118 149
202 0 41 -29 110 -58 142 -55 58 -96 68 -284 67 -167 -1 -170 -1 -157 18 8 11
71 100 141 198 69 98 145 210 169 248 49 81 109 219 109 254 0 13 3 21 6 18 4
-4 7 -144 7 -312 0 -338 3 -372 43 -471 67 -170 192 -291 368 -357 72 -27 93
-30 191 -31 119 0 188 15 280 61 163 82 284 240 325 423 5 25 10 208 10 420 0
346 1 373 16 345 49 -95 149 -135 256 -103 51 15 111 76 128 130 22 70 38 95
73 117 101 62 234 -21 213 -134 -16 -83 -127 -253 -447 -681 -184 -247 -204
-284 -195 -362 8 -64 17 -85 60 -130 36 -39 70 -59 117 -68 19 -4 201 -6 406
-5 406 1 416 2 477 59 114 107 72 298 -79 356 -11 4 -98 7 -194 7 l-174 -1 25
32 c48 64 205 284 257 362 96 142 171 324 171 415 l0 34 30 -44 c102 -155 330
-114 379 69 22 79 102 132 172 112 78 -23 114 -74 107 -152 -8 -75 -69 -128
-150 -128 -43 -1 -106 -30 -140 -66 -115 -125 -40 -332 128 -350 102 -11 153
-52 162 -129 5 -50 -19 -109 -54 -132 -62 -40 -143 -30 -190 23 -25 30 -29 40
-39 112 -11 81 -63 152 -130 176 -144 51 -287 -51 -286 -204 0 -144 61 -282
170 -390 227 -223 572 -221 797 4 192 192 221 487 70 709 l-26 37 33 53 c84
132 110 291 72 437 l-16 62 76 152 c147 296 205 549 200 871 -2 94 -6 181 -9
195 -2 14 -7 43 -11 65 -29 198 -127 456 -246 648 -27 43 -47 82 -44 87 2 4
18 10 34 13 37 8 79 45 86 77 8 38 -20 79 -110 157 l-80 70 -30 104 c-16 57
-39 114 -50 126 -39 43 -105 35 -149 -19 -111 -134 -113 -137 -204 -164 -118
-35 -148 -49 -167 -78 -29 -44 -12 -87 58 -148 118 -101 117 -99 143 -189 14
-46 27 -91 29 -100 9 -42 51 -79 90 -79 33 0 69 28 127 98 l62 75 23 -27 c33
-39 113 -179 156 -272 65 -146 106 -289 134 -469 5 -27 8 -140 8 -250 -1 -218
-12 -302 -65 -465 -32 -97 -120 -284 -147 -311 -5 -5 -22 5 -42 26 -196 208
-535 228 -761 46 -87 -70 -160 -178 -187 -274 l-17 -58 -22 65 c-59 176 -197
311 -374 367 -97 31 -232 29 -328 -4 -102 -35 -174 -81 -242 -154 -59 -63
-124 -177 -136 -239 -3 -19 -9 -34 -13 -34 -3 0 -14 27 -25 61 -35 114 -136
241 -248 313 -29 18 -87 46 -128 61 -67 25 -88 29 -195 29 -133 0 -200 -17
-302 -75 -143 -82 -275 -260 -296 -399 -6 -37 -14 -30 -21 17 -3 26 -24 84
-47 131 -70 145 -208 259 -359 298 -215 55 -453 -26 -588 -200 -22 -28 -23
-29 -37 -10 -31 42 -115 225 -148 324 -60 177 -79 291 -82 490 -4 300 45 525
172 775 47 94 124 218 141 229 5 3 27 -15 48 -41 93 -114 129 -136 183 -113
35 14 43 30 81 155 29 97 32 101 93 155 100 88 122 114 125 147 4 54 -27 78
-152 117 -113 36 -114 36 -172 102 -33 37 -63 73 -67 80 -16 27 -76 48 -107
37z m1616 -2656 c39 -20 70 -55 89 -99 23 -55 23 -721 -1 -776 -22 -54 -62
-91 -115 -106 -102 -31 -200 19 -235 118 -7 20 -11 152 -10 391 l1 360 27 41
c54 84 159 115 244 71z"/>
<path d="M1307 4198 c-29 -23 -33 -60 -31 -308 2 -295 0 -266 24 -290 25 -25
71 -26 101 -2 20 17 23 29 25 113 2 52 3 99 3 106 1 8 29 12 91 12 l90 0 0
-98 c0 -84 3 -102 21 -125 29 -36 80 -36 109 1 20 26 21 35 18 299 -3 260 -4
274 -23 288 -30 23 -72 19 -100 -9 -23 -22 -25 -32 -25 -115 l0 -90 -92 0 -93
0 0 96 c0 89 -2 97 -24 115 -27 22 -70 25 -94 7z"/>
<path d="M2048 4190 c-14 -10 -32 -38 -41 -62 -9 -24 -52 -138 -96 -255 -45
-117 -81 -219 -81 -228 0 -26 46 -65 78 -65 32 0 59 26 84 81 l16 36 93 -1 93
-1 10 -33 c25 -89 115 -111 154 -38 12 25 11 30 -94 309 -58 156 -94 239 -111
255 -30 27 -72 28 -105 2z m71 -296 c15 -42 14 -43 -28 -48 -27 -3 -31 -1 -26
13 4 9 12 28 17 44 13 36 21 34 37 -9z"/>
<path d="M2447 4188 l-24 -24 1 -273 1 -273 24 -19 c13 -10 35 -19 50 -19 31
0 71 32 72 58 0 9 1 47 1 83 l1 66 66 5 c84 6 139 39 177 104 56 95 26 219
-68 282 -38 25 -51 27 -159 31 -113 3 -119 2 -142 -21z m224 -141 c28 -21 31
-52 8 -80 -16 -22 -29 -27 -64 -27 l-44 0 0 60 1 60 41 0 c23 0 49 -6 58 -13z"/>
<path d="M2965 4185 l-25 -24 0 -266 0 -266 25 -24 c33 -34 77 -33 104 1 17
22 21 41 21 105 l0 79 53 0 c124 1 218 91 219 210 1 59 -21 108 -66 152 -47
45 -92 58 -210 58 -90 0 -99 -2 -121 -25z m227 -142 c22 -20 23 -61 1 -85 -11
-12 -30 -18 -60 -18 l-43 0 0 60 0 60 42 0 c24 0 49 -7 60 -17z"/>
<path d="M3440 4190 c-11 -11 -21 -24 -21 -30 -1 -5 -2 -16 -4 -22 -2 -16 27
-69 99 -178 l56 -85 -1 -124 c0 -114 1 -125 22 -147 27 -29 68 -31 100 -5 23
18 24 26 26 149 l3 130 75 118 c83 130 91 160 49 193 -27 21 -50 26 -78 15
-16 -6 -106 -128 -106 -144 0 -30 -25 -12 -63 47 -24 38 -51 76 -61 86 -23 23
-71 22 -96 -3z"/>
<path d="M4230 3262 c-58 -3 -87 -18 -98 -51 -4 -14 -8 -142 -7 -285 1 -258 1
-259 24 -277 27 -22 69 -25 94 -6 22 15 34 60 32 116 l-1 43 29 -33 c101 -115
127 -139 156 -139 58 0 93 58 65 110 -8 14 -36 49 -63 79 l-50 55 28 17 c62
37 102 117 95 188 -7 68 -49 128 -114 161 -28 15 -125 26 -190 22z m143 -173
c30 -42 -5 -83 -66 -77 -29 3 -31 6 -32 43 -2 53 0 55 45 55 28 0 43 -6 53
-21z"/>
<path d="M635 3235 l-25 -24 0 -264 c0 -252 1 -266 21 -291 14 -18 30 -26 52
-26 66 0 77 27 77 186 0 148 -13 152 119 -41 45 -66 91 -125 103 -131 31 -17
69 -8 96 22 23 26 23 27 19 283 -2 175 -7 263 -15 278 -25 46 -105 42 -125 -6
-8 -18 -12 -76 -11 -155 l2 -127 -37 53 c-21 29 -68 97 -105 150 -86 126 -120
145 -171 93z"/>
<path d="M1264 3250 c-12 -5 -26 -21 -31 -37 -7 -22 -11 -447 -4 -524 0 -8 10
-25 21 -37 19 -20 30 -22 141 -22 161 0 184 12 181 89 -2 43 -26 56 -115 61
l-82 5 0 40 0 40 71 5 c52 4 78 10 93 24 29 26 27 71 -4 101 -21 22 -33 25
-92 25 l-69 0 2 38 c1 20 2 40 3 45 0 4 32 7 70 7 84 0 98 5 116 40 19 37 3
88 -32 101 -30 11 -240 11 -269 -1z"/>
<path d="M1688 3246 c-19 -14 -41 -63 -33 -76 3 -4 8 -25 11 -46 3 -22 25
-133 49 -248 35 -175 46 -213 65 -228 30 -24 81 -23 108 2 20 19 92 221 92
259 0 35 21 -11 54 -118 20 -65 45 -124 57 -137 43 -46 118 -24 138 39 10 31
101 486 101 505 0 22 -50 62 -78 62 -45 0 -68 -34 -87 -130 -24 -117 -32 -156
-34 -148 0 4 -17 60 -36 125 -38 125 -57 153 -104 153 -46 -1 -62 -24 -101
-151 -20 -67 -40 -117 -43 -111 -4 5 -16 58 -28 118 -15 79 -26 113 -41 126
-24 21 -66 23 -90 4z"/>
<path d="M2552 3237 c-12 -13 -22 -35 -22 -48 0 -15 33 -77 76 -144 l76 -118
1 -129 c2 -123 3 -131 26 -149 30 -25 72 -24 99 1 20 19 22 30 22 146 l0 124
42 68 c23 37 47 74 54 82 7 8 24 37 37 63 22 40 24 52 15 78 -10 29 -41 49
-76 49 -25 0 -61 -38 -105 -110 l-39 -62 -53 79 c-29 44 -61 83 -70 87 -32 12
-62 6 -83 -17z"/>
<path d="M3121 3233 l-27 -28 2 -255 c1 -140 2 -260 3 -267 0 -7 11 -21 23
-33 19 -18 35 -20 146 -20 68 0 132 4 142 10 29 16 42 67 25 100 -18 36 -31
40 -119 40 l-72 0 1 43 1 42 71 5 c84 6 113 25 113 76 0 51 -37 74 -119 74
l-67 0 1 43 1 42 80 5 c43 3 85 9 92 13 40 26 30 111 -15 128 -13 5 -76 9
-139 9 -113 0 -116 -1 -143 -27z"/>
<path d="M3731 3243 c-19 -16 -67 -127 -140 -328 -10 -27 -32 -86 -49 -130
-27 -72 -29 -84 -17 -111 13 -32 32 -44 69 -44 34 0 61 25 76 69 7 23 16 42
19 43 3 0 46 2 94 3 l88 2 25 -53 c18 -39 33 -56 51 -60 37 -10 76 7 92 40 12
27 8 44 -83 285 -102 271 -119 301 -175 301 -16 0 -38 -8 -50 -17z m71 -344
c-19 -7 -52 0 -52 11 0 4 7 25 16 46 l16 39 18 -45 c16 -41 16 -46 2 -51z"/>
</g>
</svg>
